<?xml version="1.0" encoding="UTF-8"?>
<svg version="1.1" xmlns="http://www.w3.org/2000/svg" width="512" height="512">
<path d="M0 0 C1.01790619 0.00215515 2.03581238 0.0043103 3.08456421 0.00653076 C17.69363523 0.05620146 32.02575853 0.30709809 46.375 3.3125 C47.34985352 3.51117676 48.32470703 3.70985352 49.32910156 3.91455078 C92.59881524 12.96579926 132.80019334 31.35020671 166.375 60.3125 C167.12007813 60.94671875 167.86515625 61.5809375 168.6328125 62.234375 C182.13779833 74.04551515 194.80918743 86.79610228 205.375 101.3125 C206.23149066 102.46244831 207.08826433 103.61218589 207.9453125 104.76171875 C213.9859414 112.95339526 219.34505071 121.46895078 224.375 130.3125 C224.73948242 130.94430176 225.10396484 131.57610352 225.47949219 132.22705078 C247.08534998 169.97532572 256.85198095 212.74189997 256.6875 255.9375 C256.68534485 256.95540619 256.6831897 257.97331238 256.68096924 259.02206421 C256.63129854 273.63113523 256.38040191 287.96325853 253.375 302.3125 C253.07698486 303.77478027 253.07698486 303.77478027 252.77294922 305.26660156 C243.72170074 348.53631524 225.33729329 388.73769334 196.375 422.3125 C195.74078125 423.05757813 195.1065625 423.80265625 194.453125 424.5703125 C182.64198485 438.07529833 169.89139772 450.74668743 155.375 461.3125 C154.22505169 462.16899066 153.07531411 463.02576433 151.92578125 463.8828125 C143.73410474 469.9234414 135.21854922 475.28255071 126.375 480.3125 C125.74319824 480.67698242 125.11139648 481.04146484 124.46044922 481.41699219 C86.71217428 503.02284998 43.94560003 512.78948095 0.75 512.625 C-0.77685928 512.62176727 -0.77685928 512.62176727 -2.33456421 512.61846924 C-16.94363523 512.56879854 -31.27575853 512.31790191 -45.625 509.3125 C-47.08728027 509.01448486 -47.08728027 509.01448486 -48.57910156 508.71044922 C-91.84881524 499.65920074 -132.05019334 481.27479329 -165.625 452.3125 C-166.37007813 451.67828125 -167.11515625 451.0440625 -167.8828125 450.390625 C-181.38779833 438.57948485 -194.05918743 425.82889772 -204.625 411.3125 C-205.48149066 410.16255169 -206.33826433 409.01281411 -207.1953125 407.86328125 C-213.2359414 399.67160474 -218.59505071 391.15604922 -223.625 382.3125 C-223.98948242 381.68069824 -224.35396484 381.04889648 -224.72949219 380.39794922 C-246.33534998 342.64967428 -256.10198095 299.88310003 -255.9375 256.6875 C-255.93534485 255.66959381 -255.9331897 254.65168762 -255.93096924 253.60293579 C-255.88129854 238.99386477 -255.63040191 224.66174147 -252.625 210.3125 C-252.42632324 209.33764648 -252.22764648 208.36279297 -252.02294922 207.35839844 C-243.91913812 168.6179322 -228.3916289 132.98346697 -204.625 101.3125 C-204.15465332 100.67844238 -203.68430664 100.04438477 -203.19970703 99.39111328 C-189.71488793 81.40049339 -172.93979291 64.38485218 -154.625 51.3125 C-153.48054596 50.46388898 -152.33734599 49.61358447 -151.1953125 48.76171875 C-143.00113158 42.70873083 -134.47650645 37.34697513 -125.625 32.3125 C-124.99319824 31.94801758 -124.36139648 31.58353516 -123.71044922 31.20800781 C-85.96217428 9.60215002 -43.19560003 -0.16448095 0 0 Z " fill="#EC5563" transform="translate(255.625,-0.3125)"/>
<path d="M0 0 C1.29993896 0.16081055 2.59987793 0.32162109 3.93920898 0.48730469 C31.37404584 3.87185214 58.8080115 7.03461546 86.33569336 9.56298828 C89.51549856 9.85681313 92.69270884 10.1697259 95.86938477 10.49560547 C110.3288533 11.96219069 124.80239192 12.83003614 139.3125 13.625 C141.72202613 13.76004384 144.13153152 13.89545844 146.54101562 14.03125 C152.36044572 14.35842512 158.1801117 14.68108475 164 15 C164.45528076 16.07016357 164.91056152 17.14032715 165.37963867 18.24291992 C165.99632569 19.67637984 166.61328358 21.10972324 167.23046875 22.54296875 C167.5282019 23.244823 167.82593506 23.94667725 168.13269043 24.6697998 C177.80102636 47.03145468 195.65729129 64.40423333 218 74 C230.09202521 78.60252015 241.25870474 80.18100638 254.1875 80.1875 C255.45142578 80.19974609 256.71535156 80.21199219 258.01757812 80.22460938 C282.88031496 80.26319614 305.29099759 70.3372818 323 53 C333.74084191 41.77163052 340.2179825 29.26689757 346 15 C346.73033447 14.96559814 347.46066895 14.93119629 348.21313477 14.89575195 C390.02655063 12.85615026 432.14944898 10.14452825 473.63818359 4.45507812 C483.24449032 3.15470371 492.87103804 1.99379368 502.5 0.875 C503.23863281 0.78863281 503.97726562 0.70226562 504.73828125 0.61328125 C506.4921213 0.40828696 508.24604969 0.20404868 510 0 C511.45227072 49.78384013 482.49426831 104.14380429 451 141 C450.36320312 141.74894531 449.72640625 142.49789062 449.0703125 143.26953125 C437.25297532 156.76520621 424.51448412 169.43558025 410 180 C408.85005169 180.85649066 407.70031411 181.71326433 406.55078125 182.5703125 C398.35910474 188.6109414 389.84354922 193.97005071 381 199 C380.36819824 199.36448242 379.73639648 199.72896484 379.08544922 200.10449219 C341.33717428 221.71034998 298.57060003 231.47698095 255.375 231.3125 C254.35709381 231.31034485 253.33918762 231.3081897 252.29043579 231.30596924 C237.68136477 231.25629854 223.34924147 231.00540191 209 228 C207.53771973 227.70198486 207.53771973 227.70198486 206.04589844 227.39794922 C162.77618476 218.34670074 122.57480666 199.96229329 89 171 C88.25492187 170.36578125 87.50984375 169.7315625 86.7421875 169.078125 C73.23720167 157.26698485 60.56581257 144.51639772 50 130 C49.14350934 128.85005169 48.28673567 127.70031411 47.4296875 126.55078125 C41.3890586 118.35910474 36.02994929 109.84354922 31 101 C30.63551758 100.36819824 30.27103516 99.73639648 29.89550781 99.08544922 C13.42333078 70.30638971 -0.22085433 33.56769358 0 0 Z " fill="#E6E8EC" transform="translate(1,281)"/>
<path d="M0 0 C1.27230469 0.99580078 1.27230469 0.99580078 2.5703125 2.01171875 C15.95792107 12.96717335 26.12989668 31.22955226 30 48 C74.42779136 49.29611061 120.01888262 42.72622696 164 37 C167.529733 36.549193 171.05983605 36.10152916 174.59033203 35.65673828 C176.66073805 35.39538835 178.7307636 35.1309964 180.80029297 34.86279297 C181.6976416 34.74822754 182.59499023 34.63366211 183.51953125 34.515625 C184.29401611 34.41540039 185.06850098 34.31517578 185.86645508 34.21191406 C188 34 188 34 192 34 C192.73906228 37.30922827 193.12602487 40.37000759 193.12939453 43.75854492 C193.13412277 45.12972725 193.13412277 45.12972725 193.13894653 46.52861023 C193.1369223 47.50272354 193.13489807 48.47683685 193.1328125 49.48046875 C193.13376923 50.48966873 193.13472595 51.49886871 193.13571167 52.53865051 C193.13639078 54.66598574 193.13455527 56.79332307 193.13037109 58.9206543 C193.12500233 62.18608205 193.13033377 65.4513733 193.13671875 68.71679688 C193.13605825 70.78385447 193.13477767 72.85091198 193.1328125 74.91796875 C193.13483673 75.89815475 193.13686096 76.87834076 193.13894653 77.88822937 C193.13579437 78.79289444 193.13264221 79.69755951 193.12939453 80.62963867 C193.12820114 81.82613289 193.12820114 81.82613289 193.12698364 83.04679871 C193 85 193 85 192 87 C155.42385921 96.92602224 114.54808883 96.97537112 77 100 C75.79139313 100.09742493 74.58278625 100.19484985 73.33755493 100.29522705 C69.73067265 100.58285301 66.12329889 100.86312006 62.515625 101.140625 C60.90807594 101.26843857 60.90807594 101.26843857 59.26805115 101.39883423 C48.84297326 102.18326608 38.44750011 102.19014661 28 102 C27.82114258 102.64573975 27.64228516 103.29147949 27.45800781 103.95678711 C24.19529769 115.33722975 18.6903639 125.01713797 11 134 C10.01773438 135.19882812 10.01773438 135.19882812 9.015625 136.421875 C-5.13413369 153.05042354 -27.02163292 165.81960644 -49 168 C-64.31174434 168.70631395 -79.43452725 169.27609167 -94 164 C-95.04414063 163.63777344 -96.08828125 163.27554688 -97.1640625 162.90234375 C-121.62445864 153.57958295 -140.62711197 134.59917199 -151.3828125 110.9609375 C-154 104.61013986 -154 104.61013986 -154 102 C-155.52379272 102.02392822 -155.52379272 102.02392822 -157.07836914 102.04833984 C-169.17389103 102.175735 -181.18076988 101.59973724 -193.24926758 100.828125 C-196.4294443 100.62551324 -199.61012529 100.43323196 -202.79101562 100.2421875 C-214.34963455 99.532126 -225.84958973 98.59886928 -237.35586548 97.29577637 C-241.45943133 96.83674609 -245.56575722 96.40407232 -249.67179871 95.96783447 C-254.37452286 95.46710772 -259.07642501 94.95888234 -263.77832031 94.45043945 C-266.17237673 94.19221547 -268.56658281 93.93537512 -270.9609375 93.67993164 C-282.99934368 92.39492398 -295.03580047 91.08021369 -307.0390625 89.49609375 C-307.9092099 89.38999283 -308.7793573 89.28389191 -309.6758728 89.17457581 C-310.47071075 89.06467819 -311.26554871 88.95478058 -312.08447266 88.84155273 C-312.77272125 88.75107162 -313.46096985 88.66059052 -314.17007446 88.56736755 C-316.53773002 87.83327706 -317.52781909 86.99083605 -319 85 C-319.36749268 82.92654419 -319.36749268 82.92654419 -319.35644531 80.51611328 C-319.35944641 79.61152374 -319.36244751 78.7069342 -319.36553955 77.77493286 C-319.35319275 76.79990814 -319.34084595 75.82488342 -319.328125 74.8203125 C-319.32625183 73.81539764 -319.32437866 72.81048279 -319.32244873 71.77511597 C-319.31572372 69.64838345 -319.30180039 67.52166339 -319.28125 65.39501953 C-319.25018864 62.14473935 -319.24028753 58.89494494 -319.234375 55.64453125 C-319.22520083 53.57811911 -319.21482375 51.51171189 -319.203125 49.4453125 C-319.19887512 48.47433624 -319.19462524 47.50335999 -319.19024658 46.50296021 C-319.17583527 45.13661942 -319.17583527 45.13661942 -319.16113281 43.74267578 C-319.15430481 42.9456424 -319.14747681 42.14860901 -319.14044189 41.3274231 C-318.98870426 38.81280532 -318.54619618 36.456658 -318 34 C-310.74469934 33.6536179 -303.77953695 34.83341335 -296.63644409 35.96566772 C-280.51236881 38.5088655 -264.41613877 40.24748382 -248.15917969 41.70019531 C-244.27863148 42.06845754 -240.42692971 42.55299101 -236.5625 43.0625 C-226.84891108 44.26790917 -217.07131034 44.74621934 -207.30297852 45.30297852 C-196.02670731 45.95141791 -196.02670731 45.95141791 -191.53515625 46.5234375 C-184.71057871 47.35253907 -177.80383475 47.37048402 -170.9375 47.5625 C-169.4850161 47.60578755 -168.03254199 47.64940474 -166.58007812 47.69335938 C-163.05349009 47.79937254 -159.52679065 47.90092748 -156 48 C-155.63213379 46.72612427 -155.63213379 46.72612427 -155.25683594 45.42651367 C-151.21361332 31.79946324 -145.32314666 20.74808174 -136 10 C-134.8553125 8.4840625 -134.8553125 8.4840625 -133.6875 6.9375 C-98.69727632 -31.30762821 -38.61120826 -32.96907748 0 0 Z " fill="#434A54" transform="translate(319,194)"/>
<path d="M0 0 C9.62511174 6.88203605 15.38681602 16.17359534 17.84375 27.72265625 C19.60314047 38.64250947 17.52381107 49.02805383 11.56640625 58.46875 C4.88096033 67.54898252 -2.91562985 74.27159647 -14.0390625 77.296875 C-26.56898695 78.99961215 -38.36816026 78.35023894 -48.93359375 70.84375 C-50.20065588 69.80165604 -51.45123033 68.73915658 -52.68359375 67.65625 C-53.28945312 67.15480469 -53.8953125 66.65335937 -54.51953125 66.13671875 C-60.5510175 60.72418415 -66.16993209 51.77838853 -66.8605957 43.54663086 C-67.28662259 26.68377374 -65.78473362 16.29240787 -53.83984375 3.71484375 C-38.75776459 -10.59458791 -17.01361491 -10.86315318 0 0 Z " fill="#E4E7EB" transform="translate(280.68359375,231.34375)"/>
<path d="M0 0 C11.385 1.485 11.385 1.485 23 3 C23.12375 5.59875 23.12375 5.59875 23.25 8.25 C24.44412675 23.50828628 28.20222442 38.50143172 33 53 C33.27295898 53.82693359 33.54591797 54.65386719 33.82714844 55.50585938 C44.755527 88.08571059 61.35597824 117.21525414 84 143 C84.75023438 143.86238281 85.50046875 144.72476563 86.2734375 145.61328125 C95.43396351 155.98088018 105.08760717 165.47894984 116 174 C116.96035156 174.77730469 117.92070313 175.55460938 118.91015625 176.35546875 C139.31361588 192.58021731 162.42635255 205.07057023 186.8046875 214.17724609 C188.75225321 214.90715006 190.68948177 215.66450522 192.625 216.42578125 C202.07003812 220.02336063 211.78999193 222.24240442 221.63134766 224.45092773 C223.79367849 224.95217305 225.93348139 225.50690793 228.078125 226.078125 C232.31138819 227.14359337 236.53452948 227.64984336 240.875 228.0625 C242.12941895 228.1860083 242.12941895 228.1860083 243.40917969 228.31201172 C254.90972169 229.3652895 266.46027019 229.66508099 278 230 C278 230.33 278 230.66 278 231 C226.36583123 231.63721682 226.36583123 231.63721682 209 228 C207.53771973 227.70198486 207.53771973 227.70198486 206.04589844 227.39794922 C162.77618476 218.34670074 122.57480666 199.96229329 89 171 C88.25492187 170.36578125 87.50984375 169.7315625 86.7421875 169.078125 C73.23720167 157.26698485 60.56581257 144.51639772 50 130 C49.14350934 128.85005169 48.28673567 127.70031411 47.4296875 126.55078125 C41.3890586 118.35910474 36.02994929 109.84354922 31 101 C30.63551758 100.36819824 30.27103516 99.73639648 29.89550781 99.08544922 C13.35343011 70.18426403 0 33.65322108 0 0 Z " fill="#D0CED3" transform="translate(1,281)"/>
<path d="M0 0 C60.88454855 -1.57690091 120.84187839 20.18308999 167 60 C167.74507812 60.63421875 168.49015625 61.2684375 169.2578125 61.921875 C182.76279833 73.73301515 195.43418743 86.48360228 206 101 C206.85649066 102.14994831 207.71326433 103.29968589 208.5703125 104.44921875 C214.6109414 112.64089526 219.97005071 121.15645078 225 130 C225.36448242 130.63180176 225.72896484 131.26360352 226.10449219 131.91455078 C242.37606522 160.34312873 254.65957288 195.0254929 256 228 C254.3987111 228.34689431 252.79368202 228.67651719 251.1875 229 C250.29417969 229.185625 249.40085937 229.37125 248.48046875 229.5625 C243.64815084 230.16992941 238.86351016 230.07811996 234 230 C233.8548999 229.06542969 233.7097998 228.13085938 233.56030273 227.16796875 C225.92051044 178.42782396 209.96427222 133.34585179 178 95 C177.54189941 94.44038574 177.08379883 93.88077148 176.61181641 93.30419922 C165.01143843 79.14746406 152.33099906 66.11084444 137.60546875 55.19970703 C136.08324003 54.06220218 134.58756382 52.8894151 133.09375 51.71484375 C109.01204117 32.95889745 81.36472218 20.52162798 52.5 11.1875 C51.21138062 10.77032715 51.21138062 10.77032715 49.89672852 10.34472656 C37.99967681 6.6084812 26.04000302 4.41826291 13.6875 2.8125 C12.34953386 2.63402873 11.01164266 2.4549948 9.67382812 2.27539062 C6.44990658 1.84475851 3.22535672 1.41972283 0 1 C0 0.67 0 0.34 0 0 Z " fill="#F07682" transform="translate(255,0)"/>
<path d="M0 0 C0 0.33 0 0.66 0 1 C-0.96486328 1.1451001 -1.92972656 1.2902002 -2.92382812 1.43969727 C-29.7579865 5.51470191 -55.02656257 11.028612 -80 22 C-80.84626953 22.36963867 -81.69253906 22.73927734 -82.56445312 23.12011719 C-100.97798122 31.26482756 -118.24577325 41.43527928 -134 54 C-135.22976562 54.94359375 -135.22976562 54.94359375 -136.484375 55.90625 C-143.70916375 61.52041705 -150.37778737 67.69821701 -157 74 C-157.51884766 74.49016602 -158.03769531 74.98033203 -158.57226562 75.48535156 C-166.55524704 83.06766237 -173.40396208 91.19743315 -180 100 C-180.93873392 101.23182278 -181.87753651 102.46359323 -182.81640625 103.6953125 C-189.17797337 112.12116349 -194.80522656 120.81320697 -200 130 C-200.35771484 130.6197168 -200.71542969 131.23943359 -201.08398438 131.87792969 C-215.1309293 156.35290285 -224.22334038 183.27433958 -229.4375 210.9375 C-229.6017749 211.80673096 -229.7660498 212.67596191 -229.93530273 213.5715332 C-230.97850026 219.59987072 -231 224.71967503 -231 231 C-238.59 230.01 -246.18 229.02 -254 228 C-250.21104317 173.83785926 -224.49940989 120.02878829 -187 81 C-186.33436035 80.30712891 -185.6687207 79.61425781 -184.98291016 78.90039062 C-175.20806923 68.792102 -165.38931394 59.25975759 -154 51 C-152.85115255 50.14508186 -151.70272016 49.28960571 -150.5546875 48.43359375 C-142.36251378 42.39048802 -133.84513988 37.03085401 -125 32 C-124.36819824 31.63551758 -123.73639648 31.27103516 -123.08544922 30.89550781 C-97.27059087 16.119941 -68.28738067 6.80090211 -39 2 C-37.93289795 1.82428467 -37.93289795 1.82428467 -36.84423828 1.64501953 C-24.58999704 -0.28142391 -12.37835775 -0.22452721 0 0 Z " fill="#D64D5A" transform="translate(255,0)"/>
<path d="M0 0 C0.73906228 3.30922827 1.12602487 6.37000759 1.12939453 9.75854492 C1.13254669 10.67266647 1.13569885 11.58678802 1.13894653 12.52861023 C1.1369223 13.50272354 1.13489807 14.47683685 1.1328125 15.48046875 C1.13424759 16.99426872 1.13424759 16.99426872 1.13571167 18.53865051 C1.13639078 20.66598574 1.13455527 22.79332307 1.13037109 24.9206543 C1.12500233 28.18608205 1.13033377 31.4513733 1.13671875 34.71679688 C1.13605825 36.78385447 1.13477767 38.85091198 1.1328125 40.91796875 C1.13483673 41.89815475 1.13686096 42.87834076 1.13894653 43.88822937 C1.13579437 44.79289444 1.13264221 45.69755951 1.12939453 46.62963867 C1.12859894 47.42730148 1.12780334 48.22496429 1.12698364 49.04679871 C1 51 1 51 0 53 C-1.9777832 53.61010742 -1.9777832 53.61010742 -4.55078125 54.10546875 C-5.47697266 54.28400391 -6.40316406 54.46253906 -7.35742188 54.64648438 C-8.33259766 54.82501953 -9.30777344 55.00355469 -10.3125 55.1875 C-11.27607422 55.37763672 -12.23964844 55.56777344 -13.23242188 55.76367188 C-21.127651 57.24642107 -21.127651 57.24642107 -25 56 C-24.01 56 -23.02 56 -22 56 C-22 38.18 -22 20.36 -22 2 C-4 0 -4 0 0 0 Z " fill="#6A6E76" transform="translate(511,228)"/>
</svg>
